<?xml version="1.0" encoding="UTF-8"?>
<svg fill="none" viewBox="0 0 223 195" xmlns="http://www.w3.org/2000/svg">
<path d="m286.93 306.21c9.915-13.817 17.01-29.452 20.882-46.011 3.872-16.56 4.445-33.72 1.685-50.501-2.76-16.78-8.798-32.853-17.769-47.301-8.971-14.447-20.701-26.986-34.518-36.9s-29.452-17.01-46.011-20.882c-16.56-3.872-33.72-4.444-50.501-1.685-16.78 2.76-32.853 8.798-47.301 17.769-14.447 8.972-26.986 20.701-36.9 34.518l210.43 150.99z" fill="url(#c)" fill-opacity=".4"/>
<path d="m305.11 272.28c3.322-14.85 3.686-30.208 1.072-45.199-2.613-14.991-8.154-29.32-16.306-42.169-8.151-12.849-18.754-23.967-31.202-32.719s-26.498-14.966-41.348-18.288-30.208-3.686-45.199-1.072c-14.991 2.613-29.32 8.154-42.169 16.306-12.849 8.151-23.967 18.754-32.719 31.202-8.7518 12.448-14.966 26.498-18.288 41.348l226.16 50.591z" fill="url(#b)" fill-opacity=".4"/>
<path d="m271.8 280.33c12.819-11.174 23.312-24.764 30.88-39.994 7.567-15.229 12.061-31.8 13.224-48.767 1.164-16.966-1.026-33.995-6.444-50.115-5.418-16.121-13.958-31.016-25.133-43.835-11.174-12.82-24.764-23.313-39.994-30.88-15.229-7.5675-31.8-12.061-48.767-13.224-16.966-1.1633-33.995 1.0265-50.115 6.4445-16.121 5.418-31.016 13.958-43.835 25.132l170.18 195.24z" fill="url(#a)" fill-opacity=".7"/>
<defs>
<linearGradient id="c" x1="114.53" x2="187.68" y1="112.25" y2="254.77" gradientUnits="userSpaceOnUse">
<stop stop-color="#85CBC9" offset="0"/>
<stop stop-color="#C6E7E6" stop-opacity="0" offset="1"/>
</linearGradient>
<linearGradient id="b" x1="95.221" x2="205.38" y1="172.99" y2="264.7" gradientUnits="userSpaceOnUse">
<stop stop-color="#85CBC9" offset="0"/>
<stop stop-color="#C6E7E6" stop-opacity="0" offset="1"/>
</linearGradient>
<linearGradient id="a" x1="148.5" x2="187" y1="52" y2="207.5" gradientUnits="userSpaceOnUse">
<stop stop-color="#85CBC9" offset="0"/>
<stop stop-color="#C6E7E6" stop-opacity="0" offset="1"/>
</linearGradient>
</defs>
</svg>
